<svg xmlns="http://www.w3.org/2000/svg" viewBox="0 0 24 24" width="24" height="24">
    <path d="M9 7H7v2h2V7z"></path>
    <path d="M9 11H7v2h2v-2z"></path>
    <path d="M9 3a2 2 0 0 0-2 2h2V3z"></path>
    <path d="M13 15h-2v2h2v-2z"></path>
    <path d="M19 3v2h2c0-1.1-.9-2-2-2z"></path>
    <path d="M13 3h-2v2h2V3z"></path>
    <path d="M9 17v-2H7a2 2 0 0 0 2 2z"></path>
    <path d="M19 13h2v-2h-2v2z"></path>
    <path d="M19 9h2V7h-2v2z"></path>
    <path d="M19 17c1.1 0 2-.9 2-2h-2v2z"></path>
    <path d="M5 7H3v12a2 2 0 0 0 2 2h12v-2H5V7z"></path>
    <path d="M15 5h2V3h-2v2z"></path>
    <path d="M15 17h2v-2h-2v2z"></path>
</svg>